<svg width="188" height="45" viewBox="0 0 188 45" fill="none" xmlns="http://www.w3.org/2000/svg">
<path d="M0.443857 35.66H18.8639V44H27.0239V35.66H33.4439V28.58H27.0239V5.06H16.8239L0.443857 27.02V35.66ZM18.8639 28.58H7.76386L18.8639 13.7V28.58ZM36.2888 38.96C36.2888 41.96 38.7488 44.42 41.7488 44.42C44.8088 44.42 47.2688 41.96 47.2688 38.96C47.2688 35.96 44.8088 33.5 41.7488 33.5C38.7488 33.5 36.2888 35.96 36.2888 38.96ZM51.6827 42.74C53.7227 44 57.3827 44.9 60.6827 44.9C74.0027 44.9 81.0227 36.62 81.0227 22.58C81.0227 10.16 73.9427 4.16 65.4827 4.16C56.8427 4.16 50.5427 9.86 50.5427 17.84C50.5427 25.88 56.7227 30.92 63.9827 30.92C68.0627 30.92 71.3627 29.18 72.9827 26.72C72.4427 33.86 67.7027 37.76 60.6227 37.76C57.9227 37.76 55.1027 36.86 53.7227 36.08L51.6827 42.74ZM71.9027 17.6C71.9027 21.44 68.8427 24.02 65.1827 24.02C61.5227 24.02 58.5227 21.5 58.5227 17.6C58.5227 13.76 61.5827 11.18 65.1827 11.18C68.8427 11.18 71.9027 13.76 71.9027 17.6ZM108.408 0.919997H101.148L79.9082 44.54H87.1082L108.408 0.919997ZM107.429 33.08C107.909 39.2 113.789 44.96 122.249 44.96C131.609 44.96 137.189 38.66 137.189 31.4C137.189 23.06 131.669 18.38 123.869 18.38C121.289 18.38 118.529 19.22 116.849 20.78L118.769 12.2H135.089V5.06H113.129L108.509 25.04C109.349 25.28 115.289 27.32 116.069 27.62C117.329 26.18 119.429 24.98 122.069 24.98C125.669 24.98 128.969 27.08 128.969 31.52C128.969 35.42 125.969 37.88 122.249 37.88C118.109 37.88 115.349 34.94 115.169 31.34L107.429 33.08ZM140.29 38.96C140.29 41.96 142.75 44.42 145.75 44.42C148.81 44.42 151.27 41.96 151.27 38.96C151.27 35.96 148.81 33.5 145.75 33.5C142.75 33.5 140.29 35.96 140.29 38.96ZM162.775 24.56C162.775 20.48 163.375 17 164.875 14.66C166.075 12.74 167.935 11.48 170.755 11.48C173.635 11.48 175.375 12.74 176.575 14.66C178.135 17 178.735 20.48 178.735 24.56C178.735 28.64 178.135 32.12 176.575 34.46C175.375 36.38 173.635 37.64 170.755 37.64C167.935 37.64 166.075 36.38 164.875 34.46C163.375 32.12 162.775 28.64 162.775 24.56ZM154.495 24.56C154.495 29.54 155.275 34.4 157.915 38.42C160.495 42.26 164.695 44.96 170.755 44.96C176.815 44.96 181.015 42.26 183.535 38.42C186.175 34.4 187.015 29.54 187.015 24.56C187.015 19.58 186.175 14.72 183.535 10.7C181.015 6.86 176.815 4.16 170.755 4.16C164.695 4.16 160.495 6.86 157.915 10.7C155.275 14.72 154.495 19.58 154.495 24.56Z" fill="#5454D4"/>
</svg>
