<svg width="111" height="41" viewBox="0 0 111 41" fill="none" xmlns="http://www.w3.org/2000/svg">
<path d="M1.25891 38.74C3.29891 40 6.95891 40.9 10.2589 40.9C23.5789 40.9 30.5989 32.62 30.5989 18.58C30.5989 6.16 23.5189 0.159998 15.0589 0.159998C6.41892 0.159998 0.118915 5.86 0.118915 13.84C0.118915 21.88 6.29892 26.92 13.5589 26.92C17.6389 26.92 20.9389 25.18 22.5589 22.72C22.0189 29.86 17.2789 33.76 10.1989 33.76C7.49891 33.76 4.67892 32.86 3.29891 32.08L1.25891 38.74ZM21.4789 13.6C21.4789 17.44 18.4189 20.02 14.7589 20.02C11.0989 20.02 8.09892 17.5 8.09892 13.6C8.09892 9.76 11.1589 7.18 14.7589 7.18C18.4189 7.18 21.4789 9.76 21.4789 13.6ZM41.3878 16.12C41.2078 15.46 41.0878 14.68 41.0878 13.96C41.0878 10.3 43.1278 7.48 47.2678 7.48C51.1678 7.48 53.1478 10 53.1478 12.82C53.1478 15.52 51.8278 17.56 48.5278 19.54L42.1078 23.38C35.1478 27.58 32.9878 33.16 32.9278 40H61.7278V32.86H43.0678C43.6678 31.36 44.9278 30.28 46.4278 29.32L53.9278 24.76C58.7278 21.82 61.4878 17.74 61.4878 12.7C61.4878 5.92 56.1478 0.159998 47.4478 0.159998C38.3878 0.159998 33.2278 6.34 33.2278 13.18C33.2278 14.14 33.4078 15.34 33.5278 15.88L41.3878 16.12ZM70.3501 10.24C70.3501 7.78 72.0901 6.1 74.3101 6.1C76.5901 6.1 78.2701 7.78 78.2701 10.24C78.2701 12.7 76.5901 14.44 74.3101 14.44C72.0901 14.44 70.3501 12.76 70.3501 10.24ZM64.3501 10.24C64.3501 15.7 68.8501 20.02 74.3101 20.02C79.7101 20.02 84.3301 15.82 84.3301 10.24C84.3301 4.72 79.7101 0.399998 74.3101 0.399998C68.9101 0.399998 64.3501 4.72 64.3501 10.24ZM96.5701 30.88C96.5701 28.42 98.3101 26.74 100.53 26.74C102.81 26.74 104.49 28.42 104.49 30.88C104.49 33.34 102.81 35.08 100.53 35.08C98.3101 35.08 96.5701 33.4 96.5701 30.88ZM90.5702 30.88C90.5702 36.34 95.0702 40.66 100.53 40.66C105.93 40.66 110.55 36.46 110.55 30.88C110.55 25.36 105.93 21.04 100.53 21.04C95.1302 21.04 90.5702 25.36 90.5702 30.88ZM77.1901 40L104.67 1.06H97.7101L70.2301 40H77.1901Z" fill="#5454D4"/>
</svg>
