<svg width="141" height="58" viewBox="0 0 141 58" fill="none" xmlns="http://www.w3.org/2000/svg">
<path d="M9.71486 57.51H7.37486V54.39C5.43486 54.19 3.90486 53.52 2.78486 52.38C1.66486 51.22 1.01486 49.91 0.834862 48.45L3.68486 47.55C3.78486 48.59 4.14486 49.5 4.76486 50.28C5.38486 51.06 6.25486 51.55 7.37486 51.75V45.48L6.62486 45.33C5.06486 45.01 3.84486 44.38 2.96486 43.44C2.08486 42.5 1.64486 41.31 1.64486 39.87C1.64486 38.43 2.17486 37.17 3.23486 36.09C4.31486 35.01 5.69486 34.37 7.37486 34.17V31.02H9.71486V34.2C11.3749 34.42 12.6449 35 13.5249 35.94C14.4249 36.86 15.0249 37.91 15.3249 39.09L12.6249 40.08C12.5249 39.42 12.2249 38.78 11.7249 38.16C11.2249 37.54 10.5549 37.11 9.71486 36.87V43.02L10.1649 43.11C11.8049 43.43 13.1049 44.1 14.0649 45.12C15.0249 46.14 15.5049 47.33 15.5049 48.69C15.5049 50.11 14.9949 51.36 13.9749 52.44C12.9549 53.52 11.5349 54.17 9.71486 54.39V57.51ZM12.5649 48.84C12.5649 48.18 12.3249 47.59 11.8449 47.07C11.3649 46.55 10.6549 46.18 9.71486 45.96V51.75C10.6549 51.57 11.3649 51.22 11.8449 50.7C12.3249 50.18 12.5649 49.56 12.5649 48.84ZM4.61486 39.75C4.61486 41.21 5.53486 42.12 7.37486 42.48V36.78C6.51486 36.94 5.83486 37.29 5.33486 37.83C4.85486 38.37 4.61486 39.01 4.61486 39.75ZM38.8994 54H31.2194V17.44H18.6594V11.92C22.1794 11.8667 25.1394 10.96 27.5394 9.2C29.9394 7.38666 31.4328 5.04 32.0194 2.16H38.8994V54ZM48.0432 52.16L50.6032 45.68C53.3232 47.3333 56.4699 48.16 60.0432 48.16C65.9632 48.16 70.3899 46.48 73.3232 43.12C76.3099 39.7067 77.8832 35.2533 78.0432 29.76C77.0299 31.6267 75.3499 33.2 73.0032 34.48C70.7099 35.76 67.9099 36.4 64.6032 36.4C59.8032 36.4 55.6166 34.8533 52.0432 31.76C48.4699 28.6133 46.6832 24.32 46.6832 18.88C46.6832 13.6533 48.5499 9.36 52.2832 6C56.0699 2.64 60.5766 0.959996 65.8032 0.959996C71.3499 0.959996 76.0966 2.98666 80.0432 7.04C83.9899 11.0933 85.9632 17.0133 85.9632 24.8C85.9632 34.5067 83.7766 42 79.4032 47.28C75.0832 52.56 68.6299 55.2 60.0432 55.2C58.0166 55.2 55.8299 54.9067 53.4832 54.32C51.1366 53.7333 49.3232 53.0133 48.0432 52.16ZM77.0032 18.72C77.0032 15.52 75.8832 12.9067 73.6432 10.88C71.4032 8.85333 68.7899 7.84 65.8032 7.84C62.7632 7.84 60.1232 8.85333 57.8832 10.88C55.6966 12.8533 54.6032 15.4667 54.6032 18.72C54.6032 22.08 55.6966 24.7467 57.8832 26.72C60.0699 28.6933 62.7099 29.68 65.8032 29.68C68.8432 29.68 71.4566 28.6933 73.6432 26.72C75.8832 24.6933 77.0032 22.0267 77.0032 18.72ZM101.608 32.73L91.3183 54H88.5883L98.8783 32.73H101.608ZM104.482 54H101.692V39.57H104.392V41.49C104.832 40.73 105.452 40.15 106.252 39.75C107.052 39.35 107.892 39.15 108.772 39.15C109.712 39.15 110.572 39.38 111.352 39.84C112.132 40.3 112.712 40.98 113.092 41.88C114.092 40.06 115.702 39.15 117.922 39.15C119.302 39.15 120.472 39.62 121.432 40.56C122.412 41.5 122.902 42.86 122.902 44.64V54H120.112V44.94C120.112 43.94 119.852 43.14 119.332 42.54C118.832 41.94 118.072 41.64 117.052 41.64C116.072 41.64 115.272 41.99 114.652 42.69C114.032 43.37 113.722 44.23 113.722 45.27V54H110.902V44.94C110.902 43.94 110.642 43.14 110.122 42.54C109.622 41.94 108.862 41.64 107.842 41.64C106.842 41.64 106.032 41.98 105.412 42.66C104.792 43.34 104.482 44.22 104.482 45.3V54ZM129.867 50.58C130.747 51.48 131.817 51.93 133.077 51.93C134.337 51.93 135.397 51.48 136.257 50.58C137.137 49.66 137.577 48.39 137.577 46.77C137.577 45.17 137.137 43.92 136.257 43.02C135.397 42.1 134.337 41.64 133.077 41.64C131.817 41.64 130.747 42.1 129.867 43.02C129.007 43.92 128.577 45.17 128.577 46.77C128.577 48.39 129.007 49.66 129.867 50.58ZM127.767 41.31C129.167 39.85 130.937 39.12 133.077 39.12C135.217 39.12 136.977 39.85 138.357 41.31C139.757 42.75 140.457 44.57 140.457 46.77C140.457 48.99 139.767 50.83 138.387 52.29C137.007 53.73 135.237 54.45 133.077 54.45C130.917 54.45 129.147 53.73 127.767 52.29C126.387 50.83 125.697 48.99 125.697 46.77C125.697 44.57 126.387 42.75 127.767 41.31Z" fill="#19191B"/>
</svg>
