<svg width="159" height="58" viewBox="0 0 159 58" fill="none" xmlns="http://www.w3.org/2000/svg">
<path d="M9.84767 57.51H7.50767V54.39C5.56767 54.19 4.03767 53.52 2.91767 52.38C1.79767 51.22 1.14767 49.91 0.967674 48.45L3.81767 47.55C3.91767 48.59 4.27767 49.5 4.89767 50.28C5.51767 51.06 6.38767 51.55 7.50767 51.75V45.48L6.75767 45.33C5.19767 45.01 3.97767 44.38 3.09767 43.44C2.21767 42.5 1.77767 41.31 1.77767 39.87C1.77767 38.43 2.30767 37.17 3.36767 36.09C4.44767 35.01 5.82767 34.37 7.50767 34.17V31.02H9.84767V34.2C11.5077 34.42 12.7777 35 13.6577 35.94C14.5577 36.86 15.1577 37.91 15.4577 39.09L12.7577 40.08C12.6577 39.42 12.3577 38.78 11.8577 38.16C11.3577 37.54 10.6877 37.11 9.84767 36.87V43.02L10.2977 43.11C11.9377 43.43 13.2377 44.1 14.1977 45.12C15.1577 46.14 15.6377 47.33 15.6377 48.69C15.6377 50.11 15.1277 51.36 14.1077 52.44C13.0877 53.52 11.6677 54.17 9.84767 54.39V57.51ZM12.6977 48.84C12.6977 48.18 12.4577 47.59 11.9777 47.07C11.4977 46.55 10.7877 46.18 9.84767 45.96V51.75C10.7877 51.57 11.4977 51.22 11.9777 50.7C12.4577 50.18 12.6977 49.56 12.6977 48.84ZM4.74767 39.75C4.74767 41.21 5.66767 42.12 7.50767 42.48V36.78C6.64767 36.94 5.96767 37.29 5.46767 37.83C4.98767 38.37 4.74767 39.01 4.74767 39.75ZM19.5922 42.32V33.28L41.8322 2.16H52.6322V35.04H61.5122V42.32H52.6322V54H45.0322V42.32H19.5922ZM45.0322 35.04V9.68L26.7922 35.04H45.0322ZM65.9104 52.16L68.4704 45.68C71.1904 47.3333 74.3371 48.16 77.9104 48.16C83.8304 48.16 88.2571 46.48 91.1904 43.12C94.1771 39.7067 95.7504 35.2533 95.9104 29.76C94.8971 31.6267 93.2171 33.2 90.8704 34.48C88.5771 35.76 85.7771 36.4 82.4704 36.4C77.6704 36.4 73.4838 34.8533 69.9104 31.76C66.3371 28.6133 64.5504 24.32 64.5504 18.88C64.5504 13.6533 66.4171 9.36 70.1504 6C73.9371 2.64 78.4438 0.959996 83.6704 0.959996C89.2171 0.959996 93.9638 2.98666 97.9104 7.04C101.857 11.0933 103.83 17.0133 103.83 24.8C103.83 34.5067 101.644 42 97.2704 47.28C92.9504 52.56 86.4971 55.2 77.9104 55.2C75.8838 55.2 73.6971 54.9067 71.3504 54.32C69.0038 53.7333 67.1904 53.0133 65.9104 52.16ZM94.8704 18.72C94.8704 15.52 93.7504 12.9067 91.5104 10.88C89.2704 8.85333 86.6571 7.84 83.6704 7.84C80.6304 7.84 77.9904 8.85333 75.7504 10.88C73.5638 12.8533 72.4704 15.4667 72.4704 18.72C72.4704 22.08 73.5638 24.7467 75.7504 26.72C77.9371 28.6933 80.5771 29.68 83.6704 29.68C86.7104 29.68 89.3238 28.6933 91.5104 26.72C93.7504 24.6933 94.8704 22.0267 94.8704 18.72ZM119.475 32.73L109.185 54H106.455L116.745 32.73H119.475ZM122.349 54H119.559V39.57H122.259V41.49C122.699 40.73 123.319 40.15 124.119 39.75C124.919 39.35 125.759 39.15 126.639 39.15C127.579 39.15 128.439 39.38 129.219 39.84C129.999 40.3 130.579 40.98 130.959 41.88C131.959 40.06 133.569 39.15 135.789 39.15C137.169 39.15 138.339 39.62 139.299 40.56C140.279 41.5 140.769 42.86 140.769 44.64V54H137.979V44.94C137.979 43.94 137.719 43.14 137.199 42.54C136.699 41.94 135.939 41.64 134.919 41.64C133.939 41.64 133.139 41.99 132.519 42.69C131.899 43.37 131.589 44.23 131.589 45.27V54H128.769V44.94C128.769 43.94 128.509 43.14 127.989 42.54C127.489 41.94 126.729 41.64 125.709 41.64C124.709 41.64 123.899 41.98 123.279 42.66C122.659 43.34 122.349 44.22 122.349 45.3V54ZM147.734 50.58C148.614 51.48 149.684 51.93 150.944 51.93C152.204 51.93 153.264 51.48 154.124 50.58C155.004 49.66 155.444 48.39 155.444 46.77C155.444 45.17 155.004 43.92 154.124 43.02C153.264 42.1 152.204 41.64 150.944 41.64C149.684 41.64 148.614 42.1 147.734 43.02C146.874 43.92 146.444 45.17 146.444 46.77C146.444 48.39 146.874 49.66 147.734 50.58ZM145.634 41.31C147.034 39.85 148.804 39.12 150.944 39.12C153.084 39.12 154.844 39.85 156.224 41.31C157.624 42.75 158.324 44.57 158.324 46.77C158.324 48.99 157.634 50.83 156.254 52.29C154.874 53.73 153.104 54.45 150.944 54.45C148.784 54.45 147.014 53.73 145.634 52.29C144.254 50.83 143.564 48.99 143.564 46.77C143.564 44.57 144.254 42.75 145.634 41.31Z" fill="#19191B"/>
</svg>
